# xmcd CD database file
#
# Track frame offsets:
#	150
#	13952
#	30282
#	44835
#	65849
#	82304
#	96273
#	107164
#	125563
#	142219
#	150752
#	163288
#	179362
#	194291
#
# Disc length: 2820 seconds
#
# Revision: 1
# Processed by: cddbd v1.5.1PL0 Copyright (c) Steve Scherf et al.
# Submitted via: CDex 1.51
#
DISCID=ce0b020e
DTITLE=Prairie Cats - 'Til the Daytime Fades
DYEAR=2001
DGENRE=Swing
TTITLE0=Alley
TTITLE1=Five Martinis and a Beer
TTITLE2=Sorry Don't Pay the Bills
TTITLE3=Slow
TTITLE4=Ol' Nellie
TTITLE5=Takin' a Chance
TTITLE6=Not in the Mood
TTITLE7=Lover du Jour
TTITLE8=Honeychild
TTITLE9=Never Said
TTITLE10=Swing that Thang
TTITLE11=Rocketship
TTITLE12=One Night Stan
TTITLE13=Bacon Joe
EXTD=YEAR: 2001
EXTT0=
EXTT1=
EXTT2=
EXTT3=
EXTT4=
EXTT5=
EXTT6=
EXTT7=
EXTT8=
EXTT9=
EXTT10=
EXTT11=
EXTT12=
EXTT13=
PLAYORDER=
